mtllib model_6.mtl
o model_6
v -1175.859375 287.40740966796875 -399.018798828125 
v -1172.82080078125 287.40740966796875 -399.018798828125 
v -1175.859375 287.4073791503906 -480.7398986816406 
v -1172.82080078125 287.4073791503906 -480.7398986816406 
v -1172.82080078125 287.4073791503906 -480.7398986816406 
v -1172.82080078125 287.40740966796875 -399.018798828125 
v -1172.82080078125 205.68621826171875 -480.7398681640625 
v -1172.82080078125 205.6862335205078 -399.0187683105469 
v -1175.859375 287.4073791503906 -480.7398986816406 
v -1172.82080078125 287.4073791503906 -480.7398986816406 
v -1175.859375 205.68621826171875 -480.7398681640625 
v -1172.82080078125 205.68621826171875 -480.7398681640625 
v -1175.859375 205.6862335205078 -399.0187683105469 
v -1172.82080078125 205.6862335205078 -399.0187683105469 
v -1175.859375 287.40740966796875 -399.018798828125 
v -1172.82080078125 287.40740966796875 -399.018798828125 
v -1175.859375 205.68621826171875 -480.7398681640625 
v -1172.82080078125 205.68621826171875 -480.7398681640625 
v -1175.859375 205.6862335205078 -399.0187683105469 
v -1172.82080078125 205.6862335205078 -399.0187683105469 
vn 0 0.021623725071549416 -3.522952818357794e-9 
vn 0 0.021623725071549416 -3.522952818357794e-9 
vn 0 0.021623725071549416 -3.522952818357794e-9 
vn 0 0.021623725071549416 -3.522952818357794e-9 
vn 0.3384384512901306 0.000047241228458005935 -7.696574280680046e-12 
vn 0.3384384512901306 0.000047241228458005935 -7.696574280680046e-12 
vn 0.3384384512901306 0.000047241228458005935 -7.696574280680046e-12 
vn 0.3384384512901306 0.000047241228458005935 -7.696574280680046e-12 
vn -3.499844592738319e-14 0.00004723770325654186 -0.021623674780130386 
vn -3.499844592738319e-14 0.00004723770325654186 -0.021623674780130386 
vn -3.499844592738319e-14 0.00004723770325654186 -0.021623674780130386 
vn -3.499844592738319e-14 0.00004723770325654186 -0.021623674780130386 
vn 1.0484504703225234e-13 0.0000472447500214912 0.021623674780130386 
vn 1.0484504703225234e-13 0.0000472447500214912 0.021623674780130386 
vn 1.0484504703225234e-13 0.0000472447500214912 0.021623674780130386 
vn 1.0484504703225234e-13 0.0000472447500214912 0.021623674780130386 
vn -6.999706126135583e-14 -0.021623725071549416 3.522952818357794e-9 
vn -6.999706126135583e-14 -0.021623725071549416 3.522952818357794e-9 
vn -6.999706126135583e-14 -0.021623725071549416 3.522952818357794e-9 
vn -6.999706126135583e-14 -0.021623725071549416 3.522952818357794e-9 
vt 1.9715684652328491 0.4632969796657562 
vt 1.9715684652328491 0.948749840259552 
vt 0.9948926568031311 0.4632969796657562 
vt 0.9948926568031311 0.948749840259552 
vt 0.9869911670684814 0.948749840259552 
vt 0.01031539961695671 0.948749840259552 
vt 0.9869911670684814 0.11459649354219437 
vt 0.01031539961695671 0.11459649354219437 
vt 1.9715684652328491 -0.5212479829788208 
vt 1.9715684652328491 -0.0357951745390892 
vt 0.9948926568031311 -0.5212479829788208 
vt 0.9948926568031311 -0.0357951745390892 
vt 0.9948926568031311 0.4564773142337799 
vt 0.9948926568031311 -0.028975505381822586 
vt 1.9715684652328491 0.4564773142337799 
vt 1.9715684652328491 -0.028975505381822586 
vt 0.01031539961695671 0.10777682811021805 
vt 0.01031539961695671 -0.37767601013183594 
vt 0.9869911670684814 0.10777682811021805 
vt 0.9869911670684814 -0.37767601013183594 
s on 
f 1/1/1 2/2/2 3/3/3 
f 2/2/2 4/4/4 3/3/3 
f 3/3/3 4/4/4 4/4/4 
f 4/4/4 5/5/5 4/4/4 
f 4/4/4 5/5/5 5/5/5 
f 5/5/5 6/6/6 5/5/5 
f 5/5/5 6/6/6 7/7/7 
f 6/6/6 8/8/8 7/7/7 
f 7/7/7 8/8/8 8/8/8 
f 8/8/8 9/9/9 8/8/8 
f 8/8/8 9/9/9 9/9/9 
f 9/9/9 10/10/10 9/9/9 
f 9/9/9 10/10/10 11/11/11 
f 10/10/10 12/12/12 11/11/11 
f 11/11/11 12/12/12 12/12/12 
f 12/12/12 13/13/13 12/12/12 
f 12/12/12 13/13/13 13/13/13 
f 13/13/13 14/14/14 13/13/13 
f 13/13/13 14/14/14 15/15/15 
f 14/14/14 16/16/16 15/15/15 
f 15/15/15 16/16/16 16/16/16 
f 16/16/16 17/17/17 16/16/16 
f 16/16/16 17/17/17 17/17/17 
f 17/17/17 18/18/18 17/17/17 
f 17/17/17 18/18/18 19/19/19 
f 18/18/18 20/20/20 19/19/19 

