mtllib model_0.mtl
o model_0
v 577.7857666015625 400.0003967285156 370.4644775390625 
v 366.6431884765625 400.0003967285156 370.4644775390625 
v 577.7857666015625 400.000244140625 -577.6858520507812 
v 366.6431884765625 400.000244140625 -577.6858520507812 
v 327.1612854003906 400.0003967285156 370.4644775390625 
v 327.1612854003906 400.000244140625 -577.6858520507812 
v 122.88512420654297 400.0003967285156 370.4644775390625 
v 122.88512420654297 400.000244140625 -577.6858520507812 
v -1082.1724853515625 400.0003967285156 370.4644775390625 
v -1082.1724853515625 400.000244140625 -577.6858520507812 
v -1179.16064453125 400.0003967285156 370.4644775390625 
v -1179.16064453125 400.000244140625 -577.6858520507812 
v 577.7857666015625 0.000668822496663779 -577.685791015625 
v 366.6431884765625 0.000668822496663779 -577.685791015625 
v 577.7857666015625 400.000244140625 -577.6858520507812 
v 366.6431884765625 400.000244140625 -577.6858520507812 
v 327.1612854003906 0.000668822496663779 -577.685791015625 
v 327.1612854003906 400.000244140625 -577.6858520507812 
v 577.7857666015625 0.0008232957916334271 370.46453857421875 
v 577.7857666015625 400.0003967285156 370.4644775390625 
v 577.7857666015625 0.000668822496663779 -577.685791015625 
v 577.7857666015625 400.000244140625 -577.6858520507812 
v -1082.1724853515625 0.000668822496663779 -577.685791015625 
v -1082.1724853515625 400.000244140625 -577.6858520507812 
v -1179.16064453125 0.000668822496663779 -577.685791015625 
v -1179.16064453125 400.000244140625 -577.6858520507812 
v -1179.16064453125 400.000244140625 -577.6858520507812 
v -1179.16064453125 400.0003967285156 370.4644775390625 
v -1179.16064453125 0.000668822496663779 -577.685791015625 
v -1179.16064453125 0.0008232957916334271 370.46453857421875 
v 577.7857666015625 0.0008232957916334271 370.46453857421875 
v 366.6431884765625 0.0008232957916334271 370.46453857421875 
v 577.7857666015625 400.0003967285156 370.4644775390625 
v 366.6431884765625 400.0003967285156 370.4644775390625 
v 122.88512420654297 -0.010083855129778385 -577.685791015625 
v 327.1612854003906 -0.010083855129778385 -577.685791015625 
v 122.88512420654297 400.000244140625 -577.6858520507812 
v 327.1612854003906 400.000244140625 -577.6858520507812 
vn -3.5794992958124053e-16 -0.004999999888241291 8.146033292355526e-10 
vn -3.5794992958124053e-16 -0.004999999888241291 8.146033292355526e-10 
vn -3.5794992958124053e-16 -0.004999999888241291 8.146033292355526e-10 
vn -3.5794992958124053e-16 -0.004999999888241291 8.146033292355526e-10 
vn -3.5794992958124053e-16 -0.004999999888241291 8.146033292355526e-10 
vn -3.5794992958124053e-16 -0.004999999888241291 8.146033292355526e-10 
vn -3.5794992958124053e-16 -0.004999999888241291 8.146033292355526e-10 
vn -3.5794992958124053e-16 -0.004999999888241291 8.146033292355526e-10 
vn -3.5794992958124053e-16 -0.004999999888241291 8.146033292355526e-10 
vn -3.5794992958124053e-16 -0.004999999888241291 8.146033292355526e-10 
vn -3.5794992958124053e-16 -0.004999999888241291 8.146033292355526e-10 
vn -3.5794992958124053e-16 -0.004999999888241291 8.146033292355526e-10 
vn 5.361550208321454e-16 0.000010923752597591374 0.0017307015368714929 
vn 5.361550208321454e-16 0.000010923752597591374 0.0017307015368714929 
vn 5.361550208321454e-16 0.000010923752597591374 0.0017307015368714929 
vn 5.361550208321454e-16 0.000010923752597591374 0.0017307015368714929 
vn 5.361550208321454e-16 0.000010923752597591374 0.0017307015368714929 
vn 5.361550208321454e-16 0.000010923752597591374 0.0017307015368714929 
vn -0.0017307015368714929 0.000010923470654233824 -1.7793012072400693e-12 
vn -0.0017307015368714929 0.000010923470654233824 -1.7793012072400693e-12 
vn -0.0017307015368714929 0.000010923470654233824 -1.7793012072400693e-12 
vn -0.0017307015368714929 0.000010923470654233824 -1.7793012072400693e-12 
vn 5.361550208321454e-16 0.000010923752597591374 0.0017307015368714929 
vn 5.361550208321454e-16 0.000010923752597591374 0.0017307015368714929 
vn 5.361550208321454e-16 0.000010923752597591374 0.0017307015368714929 
vn 5.361550208321454e-16 0.000010923752597591374 0.0017307015368714929 
vn 0.0017307015368714929 0.000010923470654233824 -1.779659210797424e-12 
vn 0.0017307015368714929 0.000010923470654233824 -1.779659210797424e-12 
vn 0.0017307015368714929 0.000010923470654233824 -1.779659210797424e-12 
vn 0.0017307015368714929 0.000010923470654233824 -1.779659210797424e-12 
vn -1.7897452803925684e-16 -0.000010923752597591374 -0.0017307015368714929 
vn -1.7897452803925684e-16 -0.000010923752597591374 -0.0017307015368714929 
vn -1.7897452803925684e-16 -0.000010923752597591374 -0.0017307015368714929 
vn -1.7897452803925684e-16 -0.000010923752597591374 -0.0017307015368714929 
vn 5.361550208321454e-16 0.000010923752597591374 0.0017307015368714929 
vn 5.361550208321454e-16 0.000010923752597591374 0.0017307015368714929 
vn 5.361550208321454e-16 0.000010923752597591374 0.0017307015368714929 
vn 5.361550208321454e-16 0.000010923752597591374 0.0017307015368714929 
vt 0 0 
vt 0 0.09107541292905807 
vt 0.4045896828174591 0 
vt 0.4045896828174591 0.09107541292905807 
vt 0 0.10804522782564163 
vt 0.4045896828174591 0.10804522782564163 
vt 0 0.19606851041316986 
vt 0.4045896828174591 0.19606851041316986 
vt 0 0.7150518298149109 
vt 0.4045896828174591 0.7150518298149109 
vt 0 0.7568049430847168 
vt 0.4045896828174591 0.7568049430847168 
vt 0.8180915713310242 0 
vt 0.9083123803138733 0 
vt 0.8180915713310242 0.4977405369281769 
vt 0.9083123803138733 0.4977405369281769 
vt 0.9250380396842957 0 
vt 0.9250380396842957 0.4977405369281769 
vt 0.4089847505092621 0 
vt 0.4089847505092621 0.4977405369281769 
vt 0.8135744333267212 0 
vt 0.8135744333267212 0.4977405369281769 
vt 0.9295551776885986 0 
vt 0.9295551776885986 0.4977405369281769 
vt 0.970819890499115 0 
vt 0.970819890499115 0.4977405369281769 
vt 0.4089847505092621 0.9999982118606567 
vt 0.8135744333267212 0.9999982118606567 
vt 0.4089847505092621 0.5022577047348022 
vt 0.8135744333267212 0.5022577047348022 
vt 0.8180915713310242 0.9999982118606567 
vt 0.9083123803138733 0.9999982118606567 
vt 0.8180915713310242 0.5022577047348022 
vt 0.9083123803138733 0.5022577047348022 
vt 0.9999982118606567 0.5022577047348022 
vt 0.9127074480056763 0.5022577047348022 
vt 0.9999982118606567 0.9999982118606567 
vt 0.9127074480056763 0.9999982118606567 
s on 
f 1/1/1 2/2/2 3/3/3 
f 2/2/2 2/2/2 3/3/3 
f 3/3/3 2/2/2 4/4/4 
f 2/2/2 5/5/5 4/4/4 
f 4/4/4 5/5/5 6/6/6 
f 5/5/5 7/7/7 6/6/6 
f 6/6/6 7/7/7 8/8/8 
f 7/7/7 9/9/9 8/8/8 
f 8/8/8 9/9/9 10/10/10 
f 9/9/9 11/11/11 10/10/10 
f 10/10/10 11/11/11 12/12/12 
f 11/11/11 12/12/12 12/12/12 
f 12/12/12 12/12/12 13/13/13 
f 12/12/12 13/13/13 13/13/13 
f 13/13/13 13/13/13 14/14/14 
f 13/13/13 15/15/15 14/14/14 
f 14/14/14 15/15/15 14/14/14 
f 15/15/15 16/16/16 14/14/14 
f 14/14/14 16/16/16 17/17/17 
f 16/16/16 18/18/18 17/17/17 
f 17/17/17 18/18/18 18/18/18 
f 18/18/18 19/19/19 18/18/18 
f 18/18/18 19/19/19 19/19/19 
f 19/19/19 20/20/20 19/19/19 
f 19/19/19 20/20/20 21/21/21 
f 20/20/20 22/22/22 21/21/21 
f 21/21/21 22/22/22 22/22/22 
f 22/22/22 23/23/23 22/22/22 
f 22/22/22 23/23/23 23/23/23 
f 23/23/23 24/24/24 23/23/23 
f 23/23/23 24/24/24 25/25/25 
f 24/24/24 26/26/26 25/25/25 
f 25/25/25 26/26/26 26/26/26 
f 26/26/26 27/27/27 26/26/26 
f 26/26/26 27/27/27 27/27/27 
f 27/27/27 28/28/28 27/27/27 
f 27/27/27 28/28/28 29/29/29 
f 28/28/28 30/30/30 29/29/29 
f 29/29/29 30/30/30 30/30/30 
f 30/30/30 31/31/31 30/30/30 
f 30/30/30 31/31/31 31/31/31 
f 31/31/31 32/32/32 31/31/31 
f 31/31/31 32/32/32 33/33/33 
f 32/32/32 34/34/34 33/33/33 
f 33/33/33 34/34/34 34/34/34 
f 34/34/34 35/35/35 34/34/34 
f 34/34/34 35/35/35 35/35/35 
f 35/35/35 36/36/36 35/35/35 
f 35/35/35 36/36/36 37/37/37 
f 36/36/36 38/38/38 37/37/37 

