mtllib model_21.mtl
o model_21
v -1175.859375 287.4075012207031 128.08514404296875 
v -1172.82080078125 287.4075012207031 128.08514404296875 
v -1175.859375 287.407470703125 46.36397171020508 
v -1172.82080078125 287.407470703125 46.36397171020508 
v -1172.82080078125 287.407470703125 46.36397171020508 
v -1172.82080078125 287.4075012207031 128.08514404296875 
v -1172.82080078125 205.68630981445312 46.36398696899414 
v -1172.82080078125 205.6863250732422 128.0851593017578 
v -1175.859375 287.407470703125 46.36397171020508 
v -1172.82080078125 287.407470703125 46.36397171020508 
v -1175.859375 205.68630981445312 46.36398696899414 
v -1172.82080078125 205.68630981445312 46.36398696899414 
v -1175.859375 205.6863250732422 128.0851593017578 
v -1172.82080078125 205.6863250732422 128.0851593017578 
v -1175.859375 287.4075012207031 128.08514404296875 
v -1172.82080078125 287.4075012207031 128.08514404296875 
v -1175.859375 205.68630981445312 46.36398696899414 
v -1172.82080078125 205.68630981445312 46.36398696899414 
v -1175.859375 205.6863250732422 128.0851593017578 
v -1172.82080078125 205.6863250732422 128.0851593017578 
vn 0 0.021623725071549416 -3.522952818357794e-9 
vn 0 0.021623725071549416 -3.522952818357794e-9 
vn 0 0.021623725071549416 -3.522952818357794e-9 
vn 0 0.021623725071549416 -3.522952818357794e-9 
vn 0.3384384512901306 0.000047241228458005935 -7.696574280680046e-12 
vn 0.3384384512901306 0.000047241228458005935 -7.696574280680046e-12 
vn 0.3384384512901306 0.000047241228458005935 -7.696574280680046e-12 
vn 0.3384384512901306 0.000047241228458005935 -7.696574280680046e-12 
vn -3.499844592738319e-14 0.00004723770325654186 -0.021623674780130386 
vn -3.499844592738319e-14 0.00004723770325654186 -0.021623674780130386 
vn -3.499844592738319e-14 0.00004723770325654186 -0.021623674780130386 
vn -3.499844592738319e-14 0.00004723770325654186 -0.021623674780130386 
vn 1.0484504703225234e-13 0.0000472447500214912 0.021623674780130386 
vn 1.0484504703225234e-13 0.0000472447500214912 0.021623674780130386 
vn 1.0484504703225234e-13 0.0000472447500214912 0.021623674780130386 
vn 1.0484504703225234e-13 0.0000472447500214912 0.021623674780130386 
vn -6.999706126135583e-14 -0.021623725071549416 3.522952818357794e-9 
vn -6.999706126135583e-14 -0.021623725071549416 3.522952818357794e-9 
vn -6.999706126135583e-14 -0.021623725071549416 3.522952818357794e-9 
vn -6.999706126135583e-14 -0.021623725071549416 3.522952818357794e-9 
vt 1.8584080934524536 -0.2019573599100113 
vt 1.8584080934524536 0.4025578200817108 
vt 0.946858823299408 -0.2019573599100113 
vt 0.946858823299408 0.4025578200817108 
vt 0.9394288063049316 1.0155644416809082 
vt 0.02787959948182106 1.0155644416809082 
vt 0.9394288063049316 -0.023301085457205772 
vt 0.02787959948182106 -0.023301085457205772 
vt 0.9394288063049316 -0.6362518668174744 
vt 0.9394288063049316 -0.03168083354830742 
vt 0.02787959948182106 -0.6362518668174744 
vt 0.02787959948182106 -0.03168083354830742 
vt 0.946858823299408 1.0155644416809082 
vt 0.946858823299408 0.41099342703819275 
vt 1.8584080934524536 1.0155644416809082 
vt 1.8584080934524536 0.41099342703819275 
vt 0.946858823299408 -0.21039296686649323 
vt 0.946858823299408 -0.8149639964103699 
vt 1.8584080934524536 -0.21039296686649323 
vt 1.8584080934524536 -0.8149639964103699 
s on 
f 1/1/1 2/2/2 3/3/3 
f 2/2/2 4/4/4 3/3/3 
f 3/3/3 4/4/4 4/4/4 
f 4/4/4 5/5/5 4/4/4 
f 4/4/4 5/5/5 5/5/5 
f 5/5/5 6/6/6 5/5/5 
f 5/5/5 6/6/6 7/7/7 
f 6/6/6 8/8/8 7/7/7 
f 7/7/7 8/8/8 8/8/8 
f 8/8/8 9/9/9 8/8/8 
f 8/8/8 9/9/9 9/9/9 
f 9/9/9 10/10/10 9/9/9 
f 9/9/9 10/10/10 11/11/11 
f 10/10/10 12/12/12 11/11/11 
f 11/11/11 12/12/12 12/12/12 
f 12/12/12 13/13/13 12/12/12 
f 12/12/12 13/13/13 13/13/13 
f 13/13/13 14/14/14 13/13/13 
f 13/13/13 14/14/14 15/15/15 
f 14/14/14 16/16/16 15/15/15 
f 15/15/15 16/16/16 16/16/16 
f 16/16/16 17/17/17 16/16/16 
f 16/16/16 17/17/17 17/17/17 
f 17/17/17 18/18/18 17/17/17 
f 17/17/17 18/18/18 19/19/19 
f 18/18/18 20/20/20 19/19/19 

